<svg xmlns="http://www.w3.org/2000/svg" viewBox="0 0 100 100" role="img" aria-labelledby="title">
  <title id="title">Cocoon mark</title>
  <defs>
    <mask id="slashMask">
      <rect width="100" height="100" fill="white"/>
      <polygon points="9,25 47,39 47,45 9,32" fill="black"/>
    </mask>
  </defs>
  <polygon points="12,10 22,10 47,38 47,44 32,58 22,58 12,47" fill="#FFFFFF" mask="url(#slashMask)"/>
  <polygon points="88,10 78,10 53,38 53,44 68,58 78,58 88,47" fill="#FFFFFF"/>
  <polygon points="27,63 45,63 45,91 36,96 22,82 22,72" fill="#FFFFFF"/>
  <polygon points="73,63 55,63 55,91 64,96 78,82 78,72" fill="#FFFFFF"/>
</svg>
